<svg height="426pt" viewBox="0 -74 426.66667 426" width="426pt" xmlns="http://www.w3.org/2000/svg"><path d="m266.667969.332031h-106.667969c-2.828125 0-5.542969 1.121094-7.542969 3.125-2.003906 2-3.125 4.714844-3.125 7.542969v106.667969c0 2.828125 1.121094 5.542969 3.125 7.542969 2 2 4.714844 3.125 7.542969 3.121093h106.667969c2.828125.003907 5.542969-1.121093 7.542969-3.121093s3.125-4.714844 3.121093-7.542969v-106.667969c.003907-2.828125-1.121093-5.542969-3.121093-7.542969-2-2.003906-4.714844-3.125-7.542969-3.125zm-24.460938 82.210938c-4.164062 4.164062-10.917969 4.164062-15.082031 0l-13.792969-13.792969-13.789062 13.792969c-4.179688 4.074219-10.863281 4.03125-14.988281-.097657-4.128907-4.125-4.171876-10.808593-.097657-14.988281l21.335938-21.332031c4.164062-4.164062 10.917969-4.164062 15.082031 0l21.332031 21.332031c4.167969 4.167969 4.167969 10.917969 0 15.085938zm0 0"/><path d="m266.667969 149.667969h-106.667969c-2.828125-.003907-5.542969 1.121093-7.542969 3.121093-2.003906 2-3.125 4.714844-3.125 7.542969v106.667969c0 2.828125 1.121094 5.542969 3.125 7.542969 2 2.003906 4.714844 3.125 7.542969 3.125h106.667969c2.828125 0 5.542969-1.121094 7.542969-3.125 2-2 3.125-4.714844 3.121093-7.542969v-106.667969c.003907-2.828125-1.121093-5.542969-3.121093-7.542969s-4.714844-3.125-7.542969-3.121093zm-24.460938 60.875-21.332031 21.332031c-4.164062 4.167969-10.917969 4.167969-15.082031 0l-21.335938-21.332031c-4.074219-4.179688-4.03125-10.863281.097657-14.988281 4.125-4.128907 10.808593-4.171876 14.988281-.097657l13.789062 13.792969 13.792969-13.792969c4.179688-4.074219 10.859375-4.03125 14.988281.097657 4.128907 4.125 4.171875 10.808593.09375 14.988281zm0 0"/><path d="m117.332031 149.667969h-106.664062c-2.832031-.003907-5.542969 1.121093-7.546875 3.121093-2 2-3.121094 4.714844-3.121094 7.542969v106.667969c0 2.828125 1.121094 5.542969 3.121094 7.542969 2.003906 2.003906 4.714844 3.125 7.546875 3.125h106.664062c2.832031 0 5.542969-1.121094 7.546875-3.125 2-2 3.121094-4.714844 3.121094-7.542969v-106.667969c0-2.828125-1.121094-5.542969-3.121094-7.542969-2.003906-2-4.714844-3.125-7.546875-3.121093zm-35.125 77.789062c2.753907 2.683594 3.847657 6.640625 2.871094 10.355469-.980469 3.714844-3.882813 6.617188-7.597656 7.597656-3.71875.980469-7.671875-.117187-10.355469-2.867187l-21.332031-21.335938c-4.167969-4.164062-4.167969-10.917969 0-15.082031l21.332031-21.332031c4.179688-4.078125 10.859375-4.035157 14.988281.09375 4.128907 4.128906 4.171875 10.808593.09375 14.988281l-13.789062 13.792969zm0 0"/><path d="m416 149.667969h-106.667969c-2.828125-.003907-5.542969 1.121093-7.542969 3.121093s-3.125 4.714844-3.121093 7.542969v106.667969c-.003907 2.828125 1.121093 5.542969 3.121093 7.542969 2 2.003906 4.714844 3.125 7.542969 3.125h106.667969c2.828125 0 5.542969-1.121094 7.542969-3.125 2.003906-2 3.125-4.714844 3.125-7.542969v-106.667969c0-2.828125-1.121094-5.542969-3.125-7.542969-2-2-4.714844-3.125-7.542969-3.121093zm-35.125 71.539062-21.332031 21.335938c-4.179688 4.074219-10.863281 4.03125-14.988281-.097657-4.128907-4.125-4.171876-10.808593-.097657-14.988281l13.792969-13.789062-13.792969-13.792969c-4.074219-4.179688-4.03125-10.859375.097657-14.988281 4.125-4.128907 10.808593-4.171875 14.988281-.09375l21.332031 21.332031c4.164062 4.164062 4.164062 10.917969 0 15.082031zm0 0"/></svg>