<svg id="Capa_1" enable-background="new 0 0 554.516 554.516" height="512" viewBox="0 0 554.516 554.516" width="512" xmlns="http://www.w3.org/2000/svg"><g><path d="m536.032 0h-480.58c-10.209 0-18.484 8.276-18.484 18.484v240.29h-18.484c-10.208 0-18.484 8.276-18.484 18.484v258.774c0 10.208 8.276 18.484 18.484 18.484h258.774c10.208 0 18.484-8.276 18.484-18.484v-18.484h240.29c10.208 0 18.484-8.276 18.484-18.484v-480.58c0-10.208-8.276-18.484-18.484-18.484zm-277.258 517.548h-221.806v-221.806h221.806zm258.774-36.967h-221.806v-203.323c0-10.208-8.276-18.484-18.484-18.484h-203.323v-221.806h443.613z"/><path d="m332.71 240.29c4.902-.001 9.603-1.949 13.068-5.416l97.835-97.835v47.799c0 10.208 8.276 18.484 18.484 18.484s18.484-8.276 18.484-18.484v-110.903h-110.904c-10.208 0-18.484 8.276-18.484 18.484s8.276 18.484 18.484 18.484h47.799l-97.835 97.835c-7.217 7.219-7.216 18.923.004 26.14 3.466 3.465 8.165 5.411 13.065 5.412z"/></g></svg>