<svg id="Line" enable-background="new 0 0 32 32" height="512" viewBox="0 0 32 32" width="512" xmlns="http://www.w3.org/2000/svg"><path d="m29.707 16.707-4 4c-.391.391-1.023.391-1.414 0s-.391-1.023 0-1.414l2.293-2.293h-9.586v9.586l2.293-2.293c.391-.391 1.023-.391 1.414 0s.391 1.023 0 1.414l-4 4c-.378.379-1.013.402-1.415 0l-4-4c-.391-.391-.391-1.023 0-1.414s1.023-.391 1.414 0l2.294 2.293v-9.586h-9.586l2.293 2.293c.391.391.391 1.023 0 1.414s-1.023.391-1.414 0l-4-4c-.387-.387-.39-1.025 0-1.415l4-4c.391-.391 1.023-.391 1.414 0s.391 1.023 0 1.414l-2.293 2.294h9.586v-9.586l-2.293 2.293c-.391.391-1.023.391-1.414 0s-.391-1.023 0-1.414l4-4c.387-.387 1.025-.39 1.415 0l4 4c.391.391.391 1.023 0 1.414-.196.195-.452.293-.708.293s-.512-.098-.707-.293l-2.293-2.293v9.586h9.586l-2.293-2.293c-.391-.391-.391-1.023 0-1.414s1.023-.391 1.414 0l4 4c.39.389.387 1.028 0 1.414z"/></svg>