<svg id="Layer_1" height="512" viewBox="0 0 24 24" width="512" xmlns="http://www.w3.org/2000/svg" data-name="Layer 1"><path d="m12 19.72-7.82-3.91v-8.73l7.82-3.85 7.82 3.85v8.73zm-5.86-5.12 5.86 2.93 5.86-2.93v-6.31l-5.86-2.88-5.86 2.88z"/><path d="m12.98 18.84h-1.96v-6.78l-6.27-3.09.42-.85-.01-1.01h.26l7.56 3.74z"/><path d="m12.98 18.84h-1.96v-7.99l7.56-3.74h.23l.02 1.01.42.85-6.27 3.09z"/><path d="m12 12.55-7.25-3.58.42-.85-.01-1.01h.23l.23.11 6.38 3.15 6.58-3.26h.23l.02 1.01.42.85z"/><path d="m2.23 6.14h-1.95v-5.87h5.86v1.96h-3.91z"/><path d="m6.14 23.73h-5.86v-5.87h1.95v3.91h3.91z"/><path d="m23.73 23.73h-5.87v-1.96h3.91v-3.91h1.96z"/><path d="m23.73 6.14h-1.96v-3.91h-3.91v-1.96h5.87z"/></svg>