<svg xmlns="http://www.w3.org/2000/svg" viewBox="0 0 275.22 117.02"><path d="M22.66,16.9l-.17,1.18H2.74L3,16.9ZM8.34,42.42a2.77,2.77,0,0,0,.12,2.43,2.13,2.13,0,0,0,1.71.77,3.63,3.63,0,0,0,2.48-1.18A10.35,10.35,0,0,0,15,40.29l.89-2.43H17l-1.18,3.56a10.54,10.54,0,0,1-3.42,5.27,8.56,8.56,0,0,1-5.19,1.6q-3.94,0-5.12-2.61A9.18,9.18,0,0,1,2,39.23L10.94,8c1.41,0,2.73-.12,4-.24a23.41,23.41,0,0,0,3.53-.59Z" transform="translate(-0.8 -0.38)"/><path d="M26.36,47.46H19.11L30.78,8c.39-1.34.33-2.33-.18-3s-1.67-1-3.59-1l.41-1.24a39.46,39.46,0,0,0,6.89-.65A33.29,33.29,0,0,0,40.09.38Zm1.53-8.65q2.3-6.63,4.3-11a38.5,38.5,0,0,1,4-7,12.69,12.69,0,0,1,4.07-3.67,9.7,9.7,0,0,1,4.42-1.07c1.88,0,3.22.44,4,1.3a4.42,4.42,0,0,1,1.12,3.32A13.39,13.39,0,0,1,49.05,25L43.27,42.42a5.05,5.05,0,0,0-.35,2.43,1.09,1.09,0,0,0,1.18.77,2.76,2.76,0,0,0,1.88-1,11.87,11.87,0,0,0,2.12-4.08l.95-2.67h1.12l-1.48,4.33q-1.29,3.72-3.47,4.91A8.57,8.57,0,0,1,41,48.29,5.24,5.24,0,0,1,37.2,47.1a4.34,4.34,0,0,1-1.06-3.26A17.53,17.53,0,0,1,37,39.23l5.42-16.29a17.34,17.34,0,0,0,.47-2,3.21,3.21,0,0,0-.06-1.66c-.16-.44-.57-.65-1.24-.65-1.06,0-2.26.75-3.59,2.25A30.77,30.77,0,0,0,34,27,84.46,84.46,0,0,0,30,36q-1.89,5-3.48,10.72Z" transform="translate(-0.8 -0.38)"/><path d="M59.69,34.43q2.78-1.07,5.07-2.19a21.38,21.38,0,0,0,3.95-2.49,15.87,15.87,0,0,0,3.53-4.56,12.54,12.54,0,0,0,1.36-5.8,4.2,4.2,0,0,0-.24-1.78.74.74,0,0,0-.7-.41,5.6,5.6,0,0,0-3.72,2,22.66,22.66,0,0,0-3.83,5.27,37.35,37.35,0,0,0-2.94,7.17A26.57,26.57,0,0,0,61,39.4c0,2.1.39,3.58,1.18,4.44a4.35,4.35,0,0,0,3.24,1.25A9.75,9.75,0,0,0,69.47,44a13.6,13.6,0,0,0,4.66-4.08l.94.47A17.81,17.81,0,0,1,72,44.14a17,17,0,0,1-4.48,3A13.1,13.1,0,0,1,62,48.29a9.36,9.36,0,0,1-6.25-2.08,7.82,7.82,0,0,1-2.47-6.27,20.87,20.87,0,0,1,1-6.16,30.36,30.36,0,0,1,2.83-6.46,29.54,29.54,0,0,1,4.42-5.68,21,21,0,0,1,5.71-4A15,15,0,0,1,74,16.07a6.68,6.68,0,0,1,4,1.13,3.7,3.7,0,0,1,1.59,3.31,7.91,7.91,0,0,1-1.29,4.33,14.4,14.4,0,0,1-3.54,3.67,29.93,29.93,0,0,1-4.83,3,46.05,46.05,0,0,1-5.25,2.25q-2.65.95-4.95,1.54Z" transform="translate(-0.8 -0.38)"/><path d="M102.41,42.42a4.68,4.68,0,0,0-.23,2.43,1.15,1.15,0,0,0,1.18.77,2.53,2.53,0,0,0,1.76-1,12.91,12.91,0,0,0,2.13-4.08l.94-2.67h1.12l-1.47,4.33a10.68,10.68,0,0,1-2.07,3.73,7,7,0,0,1-2.65,1.83,8,8,0,0,1-2.89.54,5,5,0,0,1-3.65-1.19,4.81,4.81,0,0,1-1.24-3.31,15.55,15.55,0,0,1,.77-4.56L105.48,8a3.37,3.37,0,0,0-.12-3c-.47-.63-1.67-1-3.59-1l.41-1.24A39.13,39.13,0,0,0,109,2.16,35.57,35.57,0,0,0,114.79.38Z" transform="translate(-0.8 -0.38)"/><path d="M131.05,17.26a4.54,4.54,0,0,0-3.12,1.59,16.68,16.68,0,0,0-3,4.27,45.29,45.29,0,0,0-2.59,6A50.83,50.83,0,0,0,120.56,36a36.86,36.86,0,0,0-.64,6.69,7.58,7.58,0,0,0,.58,3.44,2.12,2.12,0,0,0,1.89,1,4.57,4.57,0,0,0,3.07-1.54,17,17,0,0,0,3-4.14,37,37,0,0,0,2.59-5.92,48.72,48.72,0,0,0,1.77-6.87,38.8,38.8,0,0,0,.65-6.93,6.52,6.52,0,0,0-.65-3.44,1.91,1.91,0,0,0-1.77-1ZM113,38.69a26.35,26.35,0,0,1,1.12-7.28,28.41,28.41,0,0,1,3.48-7.4,19,19,0,0,1,5.77-5.69,14.54,14.54,0,0,1,8.08-2.25A8.76,8.76,0,0,1,138,18.5q2.42,2.37,2.41,7.16A25.5,25.5,0,0,1,139.25,33a27.12,27.12,0,0,1-3.42,7.4,19.68,19.68,0,0,1-5.78,5.75A14.83,14.83,0,0,1,122,48.29a9,9,0,0,1-6.66-2.43Q113,43.43,113,38.69Z" transform="translate(-0.8 -0.38)"/><path d="M146.53,46.57a8.05,8.05,0,0,0,1,.41,7.13,7.13,0,0,0,1.48.12,5.12,5.12,0,0,0,3.71-1.42,5.43,5.43,0,0,0,1.53-4.09,9.8,9.8,0,0,0-.82-3.84,22.85,22.85,0,0,0-2.36-4.33c-.94-1.38-1.81-2.74-2.59-4.08a9.35,9.35,0,0,1-1.12-4.62,7.89,7.89,0,0,1,2.77-6.22,10.75,10.75,0,0,1,7.36-2.43,16.36,16.36,0,0,1,3.95.48,6.46,6.46,0,0,1,3.18,1.71,4.9,4.9,0,0,1,1.24,3.61,5.34,5.34,0,0,1-.76,2.61,2.68,2.68,0,0,1-2.54,1.36,2.62,2.62,0,0,1-2.06-.94,3.91,3.91,0,0,1-.83-2.55,6.73,6.73,0,0,1,.48-2.55,9.44,9.44,0,0,1,1.23-2.07,4.72,4.72,0,0,0-2.35-.47,4.48,4.48,0,0,0-3.42,1.36,5.34,5.34,0,0,0-1.3,3.85,6.36,6.36,0,0,0,.94,3.61l2.54,4a39.86,39.86,0,0,1,2.59,4.79,10.19,10.19,0,0,1,.94,4.27,8.11,8.11,0,0,1-1.41,4.67,9.19,9.19,0,0,1-3.77,3.26,12.72,12.72,0,0,1-5.66,1.19,14.78,14.78,0,0,1-4.42-.66,7.46,7.46,0,0,1-3.42-2,5.61,5.61,0,0,1-1.29-3.91,4.3,4.3,0,0,1,.76-2.48A2.42,2.42,0,0,1,144.35,38a2.53,2.53,0,0,1,2.3,1.25,5.73,5.73,0,0,1,.77,3.07,7.93,7.93,0,0,1-.36,2.43c-.19.71-.37,1.31-.53,1.78Z" transform="translate(-0.8 -0.38)"/><path d="M189.57,16.9l-.18,1.18H169.65l.29-1.18ZM175.25,42.42a2.7,2.7,0,0,0,.12,2.43,2.12,2.12,0,0,0,1.7.77,3.63,3.63,0,0,0,2.48-1.18,10.47,10.47,0,0,0,2.36-4.15l.88-2.43h1.12l-1.18,3.56a10.41,10.41,0,0,1-3.42,5.27,8.55,8.55,0,0,1-5.18,1.6q-3.94,0-5.13-2.61a9.18,9.18,0,0,1-.06-6.45L177.84,8c1.41,0,2.73-.12,3.95-.24a23.33,23.33,0,0,0,3.54-.59Z" transform="translate(-0.8 -0.38)"/><path d="M8.05,106.68H.8L7.87,81.15a6,6,0,0,0,.3-1.42,2.11,2.11,0,0,0-.12-1.24A.82.82,0,0,0,7.16,78,2.67,2.67,0,0,0,5.1,79.14a13.55,13.55,0,0,0-1.94,3.91l-1,2.78H1l1.53-4.44q1.23-3.56,3.36-4.8a8.12,8.12,0,0,1,4.3-1.3c1.73,0,2.89.43,3.48,1.3a5.1,5.1,0,0,1,.76,3.26,14.81,14.81,0,0,1-.59,3.73Zm15-24.52a12.49,12.49,0,0,0,.53-2.78c0-.83-.38-1.25-1.24-1.25a4.67,4.67,0,0,0-3.12,1.78,25.49,25.49,0,0,0-3.42,5,65,65,0,0,0-3.48,7.52q-1.65,4.27-3.12,9.36l.88-5.86A95.21,95.21,0,0,1,15,83.82,19,19,0,0,1,20,77.3a9.3,9.3,0,0,1,5.84-2c1.69,0,2.85.43,3.48,1.3A5.16,5.16,0,0,1,30.09,80a16.93,16.93,0,0,1-.71,4.26L23.2,106.68H15.83Zm15.38,0A9.71,9.71,0,0,0,39,79.32c0-.79-.31-1.19-.94-1.19q-1.83,0-4.13,2.9a41.42,41.42,0,0,0-4.71,8.35,127.23,127.23,0,0,0-4.9,13.39l.59-4.68a114.26,114.26,0,0,1,4.07-11,36.5,36.5,0,0,1,3.89-7,13.05,13.05,0,0,1,4-3.74,9.42,9.42,0,0,1,4.48-1.12,4.38,4.38,0,0,1,3.59,1.3,4.84,4.84,0,0,1,1,3.32,15.23,15.23,0,0,1-.82,4.32l-5.78,17.41a4,4,0,0,0-.29,2.49,1.15,1.15,0,0,0,1.18.71,2.6,2.6,0,0,0,1.82-1,12,12,0,0,0,2.13-4.08l.94-2.67h1.12l-1.47,4.33q-1.31,3.72-3.48,4.91a8.45,8.45,0,0,1-4.13,1.18,6.13,6.13,0,0,1-2.77-.53,3.69,3.69,0,0,1-1.65-1.42,5,5,0,0,1-.59-3,20.53,20.53,0,0,1,1-4.15Z" transform="translate(-0.8 -0.38)"/><path d="M55.78,93.65q2.76-1.07,5.06-2.19a21,21,0,0,0,4-2.49,15.73,15.73,0,0,0,3.54-4.56,12.67,12.67,0,0,0,1.36-5.8,4.2,4.2,0,0,0-.24-1.78.76.76,0,0,0-.71-.42c-1.14,0-2.37.68-3.71,2A22.37,22.37,0,0,0,61.2,83.7a38.19,38.19,0,0,0-3,7.16,27,27,0,0,0-1.18,7.76c0,2.09.4,3.57,1.18,4.44a4.39,4.39,0,0,0,3.24,1.25,9.79,9.79,0,0,0,4.07-1.13,13.69,13.69,0,0,0,4.66-4.08l.94.47A18.19,18.19,0,0,1,68,103.36a16.82,16.82,0,0,1-4.47,3,13.11,13.11,0,0,1-5.49,1.12,9.4,9.4,0,0,1-6.24-2.07,7.83,7.83,0,0,1-2.48-6.28,21.19,21.19,0,0,1,1-6.15,30.65,30.65,0,0,1,2.83-6.46,29.62,29.62,0,0,1,4.42-5.68,21,21,0,0,1,5.72-4A14.93,14.93,0,0,1,70,75.29,6.67,6.67,0,0,1,74,76.41a3.73,3.73,0,0,1,1.59,3.32,7.78,7.78,0,0,1-1.3,4.32,14.06,14.06,0,0,1-3.53,3.68,30,30,0,0,1-4.84,3,45.91,45.91,0,0,1-5.24,2.25q-2.66.94-5,1.54Z" transform="translate(-0.8 -0.38)"/><path d="M99,76.12,98.8,77.3H79.06l.29-1.18ZM84.66,101.64a2.7,2.7,0,0,0,.12,2.43,2.13,2.13,0,0,0,1.71.77A3.65,3.65,0,0,0,89,103.66a10.43,10.43,0,0,0,2.36-4.15l.88-2.43h1.12l-1.18,3.56a10.46,10.46,0,0,1-3.41,5.27,8.6,8.6,0,0,1-5.19,1.59c-2.63,0-4.34-.86-5.13-2.6a9.32,9.32,0,0,1-.06-6.46l8.9-31.2c1.42,0,2.73-.12,4-.24a24.65,24.65,0,0,0,3.54-.59Z" transform="translate(-0.8 -0.38)"/><path d="M104.85,106.68H97.6l7.08-25.53a5.48,5.48,0,0,0,.35-2.48A1,1,0,0,0,104,78a2.69,2.69,0,0,0-2.06,1.13,13.5,13.5,0,0,0-2,4l-1,2.78H97.84l1.53-4.44q1.25-3.56,3.36-4.8a8.33,8.33,0,0,1,4.42-1.3c1.65,0,2.77.43,3.36,1.3a5.11,5.11,0,0,1,.77,3.26,17.39,17.39,0,0,1-.53,3.73Zm15.09-30a4.65,4.65,0,0,0-2.65.95,11.51,11.51,0,0,0-2.83,2.9,32.28,32.28,0,0,0-3,5.33q-1.47,3.26-3.06,8c-1.06,3.11-2.12,6.81-3.18,11.07L106.62,97q1.83-6.21,3.42-10.36A43.41,43.41,0,0,1,113.22,80a10.68,10.68,0,0,1,3.36-3.61,7.31,7.31,0,0,1,3.83-1.07,4.11,4.11,0,0,1,3.24,1.24,4.3,4.3,0,0,1,1.18,3.08,5.57,5.57,0,0,1-1.53,3.91,4.75,4.75,0,0,1-3.65,1.6,3.47,3.47,0,0,1-2.36-.77,2.92,2.92,0,0,1-.83-2.25,4.94,4.94,0,0,1,1.24-3.32,6,6,0,0,1,3-1.89.75.75,0,0,0-.3-.18,1.22,1.22,0,0,0-.41-.06Z" transform="translate(-0.8 -0.38)"/><path d="M141.18,76.47a4.55,4.55,0,0,0-3.12,1.6,16.68,16.68,0,0,0-3,4.27,45.29,45.29,0,0,0-2.59,6,49.39,49.39,0,0,0-1.77,6.87,36.9,36.9,0,0,0-.65,6.69,7.48,7.48,0,0,0,.59,3.43,2.12,2.12,0,0,0,1.89,1,4.53,4.53,0,0,0,3.06-1.54,16.91,16.91,0,0,0,3-4.14,37.15,37.15,0,0,0,2.59-5.93A48,48,0,0,0,143,87.84a38.61,38.61,0,0,0,.65-6.92,6.52,6.52,0,0,0-.65-3.44,1.92,1.92,0,0,0-1.77-1ZM123.09,97.91a26.35,26.35,0,0,1,1.12-7.28,28.47,28.47,0,0,1,3.48-7.41,18.94,18.94,0,0,1,5.77-5.68,14.54,14.54,0,0,1,8.08-2.25,8.76,8.76,0,0,1,6.6,2.43q2.42,2.37,2.41,7.16a25.56,25.56,0,0,1-1.17,7.29,27.12,27.12,0,0,1-3.42,7.4,19.64,19.64,0,0,1-5.78,5.74,14.83,14.83,0,0,1-8.07,2.19,9,9,0,0,1-6.66-2.42q-2.36-2.43-2.36-7.17Z" transform="translate(-0.8 -0.38)"/><path d="M174.75,78a4.33,4.33,0,0,0-2.88,1.72,23.82,23.82,0,0,0-3.13,4.74,55.56,55.56,0,0,0-3,6.69A74.4,74.4,0,0,0,163.38,99l1.12-6.16q3.12-9.42,6.19-13.44t6.83-4.09a6.07,6.07,0,0,1,5.07,2.25q1.83,2.25,1.83,6.63a24.94,24.94,0,0,1-.77,5.87,31.32,31.32,0,0,1-2.24,6.21,26.42,26.42,0,0,1-3.53,5.69A17.23,17.23,0,0,1,173,106a12.43,12.43,0,0,1-6.07,1.48,6.74,6.74,0,0,1-3.36-.82,5.17,5.17,0,0,1-2.18-2.31l.47-1a5.34,5.34,0,0,0,1.53,2,3.22,3.22,0,0,0,1.94.6,5.49,5.49,0,0,0,3.54-1.43,14.52,14.52,0,0,0,3.18-3.9,33.81,33.81,0,0,0,2.6-5.51,39.1,39.1,0,0,0,1.71-6.16,29.2,29.2,0,0,0,.64-5.86,8.8,8.8,0,0,0-.59-3.91A1.81,1.81,0,0,0,174.75,78Zm-9.6-10.48c1.37-.12,2.69-.27,3.95-.47a24.64,24.64,0,0,0,3.65-1L160,111.41c-.55,1.9-.39,3.16.47,3.79a7.24,7.24,0,0,0,4.19,1l-.36,1.24-3.77-.17q-2.42-.06-5.07-.06c-1.45,0-2.92,0-4.42.06l-3.3.17.36-1.24a4.61,4.61,0,0,0,3.06-.83,5.55,5.55,0,0,0,1.53-2.84ZM153.42,85.77c1.49-1.5,2.87-3,4.12-4.5a40.31,40.31,0,0,0,3.78-5.39A57.1,57.1,0,0,0,165,68l.18.94a35.1,35.1,0,0,1-4.72,10.13,56.66,56.66,0,0,1-6.36,7.46Z" transform="translate(-0.8 -0.38)"/><path d="M205.3,76.47a4.57,4.57,0,0,0-3.13,1.6,16.43,16.43,0,0,0-3,4.27,44,44,0,0,0-2.59,6,48,48,0,0,0-1.77,6.87,36,36,0,0,0-.65,6.69,7.48,7.48,0,0,0,.59,3.43,2.1,2.1,0,0,0,1.88,1,4.53,4.53,0,0,0,3.07-1.54,17.16,17.16,0,0,0,3-4.14,37.16,37.16,0,0,0,2.6-5.93,50.83,50.83,0,0,0,1.77-6.87,38.58,38.58,0,0,0,.64-6.92,6.53,6.53,0,0,0-.64-3.44,1.94,1.94,0,0,0-1.77-1ZM187.2,97.91a26.74,26.74,0,0,1,1.12-7.28,28.47,28.47,0,0,1,3.48-7.41,19,19,0,0,1,5.78-5.68,14.53,14.53,0,0,1,8.07-2.25,8.76,8.76,0,0,1,6.6,2.43q2.42,2.37,2.42,7.16a25.24,25.24,0,0,1-1.18,7.29,27.12,27.12,0,0,1-3.42,7.4,19.61,19.61,0,0,1-5.77,5.74,14.84,14.84,0,0,1-8.08,2.19,9,9,0,0,1-6.66-2.42q-2.35-2.43-2.36-7.17Z" transform="translate(-0.8 -0.38)"/><path d="M224.31,101.64a4.68,4.68,0,0,0-.23,2.43,1.13,1.13,0,0,0,1.17.77,2.6,2.6,0,0,0,1.77-1,12.73,12.73,0,0,0,2.12-4.08l1-2.67h1.12l-1.48,4.33a10.77,10.77,0,0,1-2.06,3.73A7.16,7.16,0,0,1,225,107a8,8,0,0,1-2.89.53,5,5,0,0,1-3.65-1.18,4.81,4.81,0,0,1-1.24-3.32,15.33,15.33,0,0,1,.77-4.56l9.37-31.26a3.37,3.37,0,0,0-.12-3c-.47-.64-1.67-.95-3.6-.95l.42-1.25a37.28,37.28,0,0,0,6.83-.65,34.59,34.59,0,0,0,5.78-1.77Z" transform="translate(-0.8 -0.38)"/><path d="M244.64,65.93a4.82,4.82,0,0,1,1.77-3.49,5.67,5.67,0,0,1,3.71-1.3,3.74,3.74,0,0,1,2.95,1.12A3.25,3.25,0,0,1,254,65a4.82,4.82,0,0,1-1.76,3.38,5.55,5.55,0,0,1-3.72,1.36,4,4,0,0,1-3-1.06,3.44,3.44,0,0,1-.83-2.79Zm-2.06,15.22q1.06-3.2-.71-3.2a2.68,2.68,0,0,0-2.12,1.25,15.6,15.6,0,0,0-2,3.85l-1,2.78h-1.12l1.54-4.44q1.29-3.56,3.42-4.8a8.58,8.58,0,0,1,4.47-1.3c1.85,0,3.11.43,3.78,1.3a4.8,4.8,0,0,1,1,3.26,12.38,12.38,0,0,1-.71,3.73l-6.25,18.06a4.44,4.44,0,0,0-.29,2.43,1.05,1.05,0,0,0,1.12.77,2.64,2.64,0,0,0,1.88-1,12.91,12.91,0,0,0,2.13-4.08l1-2.67h1.12l-1.48,4.33a9.1,9.1,0,0,1-3.41,4.85,8.43,8.43,0,0,1-4.31,1.24,5.34,5.34,0,0,1-3.77-1.12,4.37,4.37,0,0,1-1.18-3.2,14.46,14.46,0,0,1,.95-4.74Z" transform="translate(-0.8 -0.38)"/><path d="M256.69,105.79a7.47,7.47,0,0,0,1,.41,7,7,0,0,0,1.47.12,5.14,5.14,0,0,0,3.72-1.42,5.43,5.43,0,0,0,1.53-4.09,9.9,9.9,0,0,0-.83-3.85,23,23,0,0,0-2.35-4.32c-1-1.38-1.81-2.74-2.6-4.09a9.39,9.39,0,0,1-1.12-4.61,7.92,7.92,0,0,1,2.77-6.22,10.79,10.79,0,0,1,7.37-2.43,16.93,16.93,0,0,1,4,.47,6.55,6.55,0,0,1,3.18,1.72A4.88,4.88,0,0,1,276,81.09a5.36,5.36,0,0,1-.77,2.61,2.66,2.66,0,0,1-2.53,1.36,2.62,2.62,0,0,1-2.06-1,3.88,3.88,0,0,1-.83-2.54A6.92,6.92,0,0,1,270.3,79,9.87,9.87,0,0,1,271.54,77a4.75,4.75,0,0,0-2.36-.48,4.52,4.52,0,0,0-3.42,1.37,5.36,5.36,0,0,0-1.29,3.85,6.28,6.28,0,0,0,.94,3.61c.67,1.06,1.51,2.41,2.53,4a40.9,40.9,0,0,1,2.6,4.8,10.15,10.15,0,0,1,.94,4.26,8.12,8.12,0,0,1-1.41,4.68,9.29,9.29,0,0,1-3.78,3.26,12.67,12.67,0,0,1-5.65,1.18,14.73,14.73,0,0,1-4.42-.65,7.36,7.36,0,0,1-3.42-2,5.56,5.56,0,0,1-1.3-3.91,4.34,4.34,0,0,1,.77-2.49,2.41,2.41,0,0,1,2.24-1.18,2.52,2.52,0,0,1,2.3,1.24,5.79,5.79,0,0,1,.76,3.08,8.25,8.25,0,0,1-.35,2.43c-.2.71-.37,1.3-.53,1.78Z" transform="translate(-0.8 -0.38)"/></svg>