<svg xmlns="http://www.w3.org/2000/svg" viewBox="0 0 282.32 279.07"><path d="M10.16,27.5C11,37.15,7.28,48.38,3.68,52.85c-3.31,2.88-4.9,7.2-2.59,10.8,3,4,9.65,3.17,12.53-1.15,3.88-6.34,4.89-19-1.3-35Zm24.19-.86V6.34c4-.58,5-2,5.33-4L18.37.14V135.22h3.17c6.19,0,12.81-3.17,12.81-4.76V27.36c2.88,5.76,5.91,14.83,5.62,22.18,9.93,9.64,22.46-10.66-4.32-23.62ZM72.66,98.93c.14-1.87.14-3.6.14-5.47V86.69h34V98.93Zm34.12-28.66V82.66h-34V70.27Zm-1.44-4H75.39L57,59.62v34c0,15-.72,29.52-11.23,40.61l1.15,1.44c18.58-8.21,24.05-20.59,25.49-32.55h34.41v10.66c0,1.73-.72,2.74-2.73,2.74-2.74,0-14.69-.87-14.69-.87v2c5.9,1,8.64,2.73,10.51,5s2.45,6.05,2.88,10.94c17.57-1.44,19.87-7.49,19.87-18.14V73c3-.58,5-1.87,5.91-3L112.4,57.89Zm7.78-14.54H96.85V38.3h28.08c2,0,3.45-.72,3.89-2.3-5.48-5-14.55-11.95-14.55-11.95l-7.92,10.08h-9.5V21.46h32.69c2,0,3.45-.72,3.88-2.31-5.76-5.33-15.55-12.81-15.55-12.81l-8.49,11.08H96.85V5.62c3.45-.58,4.46-1.88,4.75-3.75L80.43,0V17.42H50.77l1.15,4H80.43V34.13H55.66l1.16,4.17H80.43V51.7H47l1.16,4.17h85.39c2.16,0,3.6-.72,3.89-2.3-5.76-5.33-15.56-13-15.56-13Z" transform="translate(0 0)"/><path d="M241.42,44.35c9.08-5.18,17.43-13.39,23.91-23.47,3.17.29,5-.72,5.76-2.45l-20.16-7.34C248.34,22.75,244,35.14,239.7,43.2ZM193.47,13.1c4.32,7.35,9.07,18.15,9.94,27.08,13,11.23,26.93-14.69-8.35-27.8Zm27.94,41.33v12.1l-18.72-5.76c-1.87,12.67-8.21,31.68-17,43.34l1.44,1.15c14-8.35,24.76-22.6,30-35.13A9.4,9.4,0,0,0,221.41,69v44.78h2.88c5.76,0,12.38-3,12.38-4.61V54.43h33.12c2,0,3.6-.72,4-2.3-5.61-5.19-15-12.24-15-12.24L250.78,50.4H236.67v-41c3.75-.58,4.9-2,5.33-4l-20.59-2V50.4H189.58l1.16,4Zm18.86,9.07c5.62,10.37,12.82,24.77,14.55,36.58,14.68,12.38,27.79-17.86-13-37.44ZM151,3.31c5,5.47,10.37,14.55,11.52,22.32C177.2,36.14,190.74,7.34,152.29,2.45ZM171.3,104.83A74,74,0,0,0,191.46,74.3c3-.14,4.46-.57,5.32-1.87L183.1,61.34l-7.92,7.78h-8.06c4.61-7.06,10.8-16.85,14.54-22.9,3.32-.28,6.05-1,7.35-2.44L175.33,31.54l-6.63,6.91H147.25l1.29,4h19.88c-3.89,6.91-10.08,16.85-14.69,23.47A26.58,26.58,0,0,0,148,68.69l12.24,9.07,5.18-4.46h10.66a109.31,109.31,0,0,1-9.22,30.38h-.14c-3,0-14.55,8.64-22,12.53l11.66,16.27a2.41,2.41,0,0,0,1-3c2.88-7.06,6-14.4,8.21-18.58,1.15-2.59,2.88-2.88,4.89-.29,12.1,15,24.63,20.16,56.74,20.16h41.9c.87-6.48,4.75-12.53,11.67-14v-1.87c-17,1.15-30.68,1.15-47.81,1.15-32.11,0-49.54-1.87-60.77-10.65Z" transform="translate(0 0)"/><path d="M44.29,265.1V246.67H92.67V265.1Zm48.38-39.74V242.5H44.29V225.36Zm-1.44-4H45.3l-17.72-7.06v64.8h2.6c6.91,0,14.11-3.74,14.11-5.33v-4.6H92.67v9.64h2.88c5.47,0,14-3.16,14.11-4.32V228.1a9.3,9.3,0,0,0,5.62-3L99,212.69ZM131,181.87c2.16,0,3.74-.72,4.17-2.3C129,174.24,119,166.75,119,166.75L110.1,177.7H76.54V162.43c11.81-1.15,23-2.3,32.26-3.74,4.46,1.87,7.78,1.73,9.36.43L102.9,143.86C82.74,150.77,43.42,159,12.46,162.58L12.9,165c15.12.15,31.53-.43,47.08-1.44V177.7H2.38l1.16,4.17H46.45C36.37,197,19.66,212.54.51,222.77l1.15,1.87c23.62-7.49,44.21-19,58.32-33.55v25.49h2.88c8.5,0,13.68-3.46,13.68-4.32v-23C92,197.14,111,210.1,120.46,221.33c18.87,4.61,19.44-30.39-43.92-35.28v-4.18Z" transform="translate(0 0)"/><path d="M154.88,146.16c4.61,5.76,10.37,14.54,11.81,22.46,14.4,10.23,27.65-17.42-10.51-23.32Zm-10.51,31.1c4.89,5.19,9.79,13.54,10.8,21,13.68,10.37,27.07-16.56-9.51-21.89Zm97.49,29.38-6.92,7.06h-20.3L210,212a83.38,83.38,0,0,0,9.65-15.12H241a101.47,101.47,0,0,0,4.9,12.67Zm-29.09,28.94V217.87h23.47v17.71Zm4.46-63.07h16.56v20.16H217.23Zm60,24.34c2.16,0,3.74-.72,4-2.31-5.76-5.61-15.41-13.68-15.41-13.68l-8.64,11.81h-7.34V172.51h24.91c2,0,3.6-.72,4-2.3-5.61-5.47-15-13.25-15-13.25l-8.35,11.38h-5.62V151.06c3.89-.58,5-2,5.33-4l-21.46-1.87v23.19H217.23V151.06c3.89-.58,5-2,5.33-4.18l-20.74-1.73v23.19H182.1l1.15,4.17h18.57v20.16h-21.6c1.59-5.76,3.32-11.37,4.61-15.84l-2.3-.43c-22.9,51.41-22.9,51.41-25.78,56.45-1.58,2.88-2.16,2.88-4.17,2.88H146.1v2.73a14,14,0,0,1,7.34,2.45c3.31,2.16,4,15.41,1.3,30.67,1,5.33,4.17,7.49,7.2,7.49,6.62,0,11.37-4.75,11.66-11.81.43-12.81-5.18-18.28-5.47-25.77-.15-3.6.86-8.5,1.87-13,1.15-4.9,5.76-20.74,9.94-35.28l1,3.6h20.31c-6.05,15.26-16.13,30.24-29.81,40.89l1.15,1.88a121,121,0,0,0,24-14.69v36.86c0,11.67,4.32,14.4,20.59,14.4h19c29.38,0,36.14-2.88,36.14-9.93,0-2.88-1.44-4.76-6.19-6.48l-.43-17.43h-1.58c-2.74,8.21-5,14.4-6.77,16.85-1,1.44-2.16,1.87-4.47,2-2.59.28-8.49.28-15.26.28h-18c-6.05,0-6.91-.72-6.91-3.16V239.62h23.47v6.91h2.59c4.75,0,12.67-2.16,12.82-3V219.6a57.3,57.3,0,0,0,17.71,17.14c2-8.64,6.48-14,12.67-15.56l.29-1.58c-14.11-3.6-29.23-11.66-38-22.75Z" transform="translate(0 0)"/></svg>